<?xml version="1.0" standalone="no"?>
<!DOCTYPE svg PUBLIC "-//W3C//DTD SVG 20010904//EN"
 "http://www.w3.org/TR/2001/REC-SVG-20010904/DTD/svg10.dtd">
<svg version="1.0" xmlns="http://www.w3.org/2000/svg"
 width="16.000000pt" height="16.000000pt" viewBox="0 0 16.000000 16.000000"
 preserveAspectRatio="xMidYMid meet">
<metadata>
Created by potrace 1.11, written by Peter Selinger 2001-2013
</metadata>
<g transform="translate(0.000000,16.000000) scale(0.001681,-0.001681)"
fill="#000000" stroke="none">
<path d="M7458 8435 c-2 -1 -39 -6 -83 -9 -102 -8 -210 -21 -210 -26 0 -1 -18
-3 -40 -4 -50 -5 -146 -22 -250 -46 -45 -10 -92 -21 -105 -24 -14 -2 -79 -21
-145 -40 -66 -20 -127 -38 -135 -40 -158 -45 -529 -210 -656 -291 -30 -19 -58
-35 -62 -35 -4 0 -20 -11 -36 -25 -16 -14 -35 -25 -42 -25 -7 0 -14 -3 -16 -8
-1 -4 -28 -25 -58 -47 -30 -22 -57 -42 -60 -45 -3 -3 -36 -30 -75 -61 -131
-106 -295 -277 -430 -449 -36 -47 -72 -92 -78 -100 -31 -39 -88 -122 -85 -124
2 -1 21 -8 43 -15 68 -21 118 -76 143 -156 11 -36 7 -131 -7 -159 -5 -12 -17
-42 -27 -68 -9 -26 -23 -53 -30 -59 -8 -6 -14 -16 -14 -21 0 -6 -33 -43 -72
-83 -77 -76 -167 -131 -253 -155 -58 -17 -183 -17 -212 -1 -18 9 -27 1 -84
-72 -252 -327 -555 -546 -924 -671 -120 -41 -148 -45 -90 -15 67 35 187 108
240 145 187 133 416 378 509 547 l27 48 -28 -7 c-15 -4 -34 -11 -40 -17 -7 -5
-13 -7 -13 -4 0 3 -15 1 -32 -4 -96 -29 -162 -38 -283 -40 -247 -3 -449 118
-490 293 -29 128 11 215 148 325 20 16 139 64 145 59 2 -3 -9 -11 -25 -20 -77
-39 -133 -131 -133 -217 0 -53 33 -131 67 -159 36 -30 83 -61 83 -55 0 3 12
-1 28 -9 85 -44 249 -34 357 22 38 19 135 118 135 137 0 8 4 15 8 15 12 0 32
58 51 150 16 75 -4 186 -46 257 -30 52 -94 123 -111 123 -7 0 -12 4 -12 8 0
13 -88 51 -165 72 -48 12 -105 18 -180 18 -96 0 -144 -5 -285 -34 -36 -8 -148
-53 -200 -82 -102 -57 -217 -160 -309 -277 l-50 -64 30 -23 c158 -121 209
-169 280 -263 93 -123 139 -260 134 -398 -3 -85 -33 -196 -63 -229 -8 -10 -12
-18 -7 -18 9 0 -57 -83 -102 -127 -19 -18 -38 -33 -43 -33 -6 0 -10 -4 -10 -9
0 -13 -146 -86 -205 -102 -74 -21 -303 -18 -380 5 -33 9 -64 18 -70 19 -20 6
-90 42 -109 57 -54 43 -128 130 -111 130 4 0 3 6 -2 13 -33 40 -45 163 -24
250 15 65 62 154 103 198 56 60 100 88 168 107 30 9 123 3 154 -9 41 -17 108
-61 101 -67 -2 -3 -10 0 -18 6 -36 30 -137 34 -196 7 -159 -74 -195 -312 -65
-431 49 -44 102 -70 157 -76 9 -1 17 -5 17 -8 0 -10 176 -11 223 -1 209 48
319 232 273 457 -7 32 -49 129 -58 132 -4 2 -8 9 -8 16 0 33 -203 210 -253
220 -6 2 -34 13 -62 25 -27 13 -57 24 -65 26 -8 2 -52 13 -97 24 -206 53 -447
42 -636 -29 -31 -12 -60 -21 -63 -20 -4 1 -10 -3 -14 -10 -4 -6 -13 -12 -21
-13 -30 -5 -166 -102 -230 -165 -66 -66 -169 -204 -169 -228 0 -6 -7 -17 -15
-24 -9 -7 -14 -19 -11 -25 2 -7 1 -16 -4 -21 -8 -9 -26 -62 -36 -105 -5 -19
-13 -94 -16 -144 0 -12 10 -91 16 -120 32 -151 151 -315 306 -420 160 -108
265 -246 289 -380 9 -50 8 -158 -3 -204 -40 -175 -163 -334 -316 -408 -130
-63 -170 -72 -298 -68 -101 3 -109 4 -155 23 -16 7 -32 12 -36 12 -4 0 -17 8
-29 17 -11 10 -34 29 -51 43 -16 14 -30 33 -31 43 0 9 -4 17 -8 17 -9 0 -9 0
-16 74 -4 45 5 82 37 145 13 26 82 81 101 81 6 0 4 -6 -5 -13 -51 -40 -65
-131 -27 -186 40 -60 105 -85 208 -82 165 5 292 77 346 195 41 90 35 227 -15
324 -18 36 -81 106 -122 137 -35 26 -152 72 -204 81 -16 2 -52 8 -80 12 -27 5
-96 7 -152 6 -310 -6 -610 -161 -794 -409 -24 -33 -48 -63 -54 -67 -5 -4 -6
-8 -1 -8 5 0 3 -8 -5 -17 -8 -10 -22 -32 -31 -48 -20 -37 -79 -195 -72 -195 3
0 1 -8 -5 -17 -26 -52 -36 -311 -14 -407 51 -224 192 -402 393 -494 62 -29
123 -54 135 -57 6 -2 46 -12 90 -24 131 -33 228 -44 400 -44 157 -1 247 7 355
29 14 3 34 7 45 8 11 2 20 4 20 5 0 2 10 4 22 7 26 4 139 41 168 54 85 39 317
122 388 139 173 44 321 25 497 -64 251 -125 400 -336 438 -620 15 -117 4 -337
-22 -423 -3 -9 -7 -30 -10 -46 -5 -30 -45 -155 -55 -171 -3 -5 -6 -15 -7 -21
-1 -6 -13 -35 -26 -65 -80 -176 -112 -310 -111 -469 0 -61 12 -181 20 -193 2
-4 6 -20 9 -35 5 -31 11 -48 44 -117 72 -150 186 -258 340 -321 36 -14 79 -28
95 -31 17 -2 42 -9 57 -15 15 -5 34 -8 43 -5 8 4 17 2 19 -2 6 -9 295 -7 336
2 14 4 44 8 68 11 23 3 46 7 50 10 5 3 24 8 43 11 42 7 106 30 177 61 29 13
55 24 58 24 3 0 10 5 17 10 7 6 33 24 60 41 125 81 228 216 292 384 25 64 47
190 49 280 8 310 -114 536 -357 660 -48 25 -94 45 -102 45 -8 0 -17 5 -20 10
-4 6 -3 10 2 9 4 -1 10 0 13 1 23 8 61 12 165 15 150 5 227 -10 365 -72 202
-91 345 -242 473 -500 89 -178 172 -287 296 -383 124 -97 320 -182 471 -204
19 -3 53 -9 75 -13 81 -14 394 -6 479 12 6 1 29 5 51 9 172 33 346 106 480
201 61 44 171 150 202 195 9 14 19 27 22 30 3 3 12 15 19 28 70 125 101 204
123 307 18 88 18 90 19 215 1 127 -15 230 -49 315 -36 88 -51 117 -85 170 -52
80 -143 166 -216 203 -67 35 -155 64 -164 55 -3 -4 -6 -1 -6 6 0 18 58 79 118
123 150 111 293 148 552 143 91 -2 181 -6 200 -9 88 -14 107 -17 144 -21 21
-3 41 -7 45 -9 3 -3 27 -7 51 -11 25 -3 59 -9 75 -13 42 -8 252 -7 299 2 210
41 425 168 534 315 15 20 30 38 34 41 20 16 83 145 103 215 19 67 23 99 20
185 -2 58 -6 116 -9 130 -3 14 -8 35 -10 46 -14 69 -76 214 -103 242 -7 7 -13
17 -13 20 0 4 -27 35 -59 69 -87 90 -212 170 -316 203 -22 7 -45 16 -51 21 -6
5 -13 6 -17 3 -3 -3 -14 -1 -24 4 -34 19 -122 31 -308 44 -5 0 -37 -2 -69 -6
-175 -20 -297 -71 -395 -165 -50 -47 -122 -151 -105 -151 2 0 0 -9 -6 -19 -11
-22 -23 -83 -23 -121 2 -238 170 -373 455 -365 115 4 155 10 219 35 130 49
188 124 184 235 -5 134 -120 226 -280 226 -89 -1 -142 -17 -199 -62 -25 -20
-27 -20 -18 -3 28 52 110 106 188 122 49 11 178 7 198 -6 6 -3 17 -7 24 -8 58
-9 163 -96 196 -163 49 -97 51 -213 5 -306 -55 -110 -194 -199 -344 -220 -16
-3 -41 -7 -55 -10 -35 -8 -260 -8 -290 0 -14 4 -38 8 -53 11 -16 2 -33 6 -38
9 -5 4 -18 8 -28 10 -59 11 -208 104 -262 162 -81 88 -142 213 -153 311 -2 18
-5 35 -8 37 -5 5 -1 101 6 137 7 43 29 113 39 126 7 9 4 12 -11 12 -12 0 -24
-4 -27 -10 -3 -5 -13 -10 -22 -10 -17 0 -223 -102 -265 -132 -16 -11 -28 -17
-28 -14 0 4 -21 -5 -47 -18 -91 -47 -246 -98 -338 -111 -22 -3 -46 -8 -54 -11
-28 -9 -197 -5 -246 6 -28 7 -58 13 -68 15 -26 6 -129 63 -157 88 -63 56 -107
140 -113 217 -8 98 66 207 158 232 212 59 237 62 545 83 84 5 135 11 135 15 0
1 25 3 55 5 49 4 95 9 170 20 64 10 97 15 120 19 14 3 41 7 60 10 19 3 97 19
174 36 177 40 159 36 246 60 41 12 82 23 90 24 8 2 22 6 30 9 8 3 35 11 60 18
87 22 281 90 370 129 110 48 254 122 258 133 2 4 8 7 13 7 8 0 75 40 164 99
65 42 257 187 293 220 18 17 36 31 39 31 4 0 67 62 142 138 185 187 314 359
405 538 41 82 87 194 79 194 -3 0 -1 6 4 13 15 18 38 108 51 197 9 60 8 242
-2 305 -22 140 -128 364 -215 454 -9 10 -32 35 -52 57 -52 56 -128 126 -169
154 -19 13 -37 27 -40 31 -18 24 -310 189 -334 189 -4 0 -25 8 -49 19 -45 20
-156 60 -185 66 -9 2 -44 11 -77 20 -33 9 -69 18 -80 21 -11 2 -31 6 -45 9
-14 3 -42 8 -64 11 -21 3 -46 7 -55 9 -9 2 -44 6 -76 10 -33 4 -71 9 -85 12
-27 5 -516 13 -522 8z m-1408 -1799 c98 -13 205 -97 227 -178 8 -29 7 -155 0
-188 -8 -32 -57 -131 -74 -148 -7 -7 -13 -17 -13 -20 0 -13 -100 -112 -154
-152 -49 -37 -166 -97 -208 -106 -10 -2 -28 -6 -40 -10 -98 -24 -203 -18 -281
15 -53 23 -112 81 -137 135 -19 41 -22 138 -6 210 15 65 90 183 160 251 97 94
258 177 364 188 17 2 34 6 36 8 5 5 72 2 126 -5z m460 -3557 c0 -5 6 -6 14 -3
21 8 163 -43 215 -78 155 -104 211 -274 153 -464 -25 -80 -105 -189 -172 -234
-12 -8 -28 -20 -34 -26 -25 -24 -171 -86 -248 -105 -113 -29 -291 -30 -408 -4
-14 3 -35 7 -48 9 -45 9 -76 19 -132 45 -24 11 -24 11 5 5 104 -21 293 -27
360 -10 137 34 217 66 293 118 48 33 142 126 142 141 0 5 8 21 18 35 54 77 55
237 3 332 -63 115 -242 167 -381 112 -88 -35 -139 -161 -100 -248 32 -72 165
-86 251 -28 44 30 57 57 53 108 -4 38 -3 39 14 20 45 -49 53 -114 23 -179 -23
-50 -43 -68 -106 -96 -47 -21 -151 -28 -210 -15 -139 30 -219 181 -178 331 17
60 74 147 108 165 14 7 25 17 25 21 0 4 14 10 30 14 17 4 30 10 30 15 0 5 24
13 53 18 65 11 227 12 227 1z m-2581 -620 c124 -41 202 -155 203 -296 0 -141
-31 -220 -117 -303 -40 -38 -103 -80 -120 -80 -8 0 -16 -4 -19 -9 -6 -8 -63
-24 -131 -36 -165 -28 -364 34 -455 143 -49 59 -50 60 -61 89 -31 79 -36 125
-30 241 2 43 16 21 16 -26 0 -102 80 -220 181 -267 241 -111 499 -26 551 182
29 115 -12 230 -92 261 -44 16 -102 21 -114 9 -6 -6 -11 -8 -11 -4 0 13 -74
-30 -98 -56 -29 -31 -37 -91 -16 -112 14 -13 13 -15 -5 -15 -11 0 -30 10 -41
23 -18 18 -21 31 -17 71 2 26 10 52 16 56 7 4 12 11 12 16 -1 17 66 81 107
103 53 28 169 33 241 10z"/>
</g>
</svg>
