<?xml-stylesheet href="tologo.css" type="text/css"?><svg xmlns="http://www.w3.org/2000/svg" width="118.955" height="91.971" viewBox="70.7235 -119.47174 95.164392 73.576807"><path d="M124.653-94.47c-1.11-1.614-.108-4.228 2.234-5.838 2.345-1.61 5.143-1.603 6.253.014 1.11 1.616.11 4.23-2.234 5.84-2.343 1.607-5.143 1.602-6.253-.015m13.158 32.63c0-2.574-2.01-3.005-3.087-3.005-2.743 0-2.928 3.382-.994 3.382 1.345 0 2.288-.757 1.834-1.914 1.144.94.922 3.345-2.155 3.226-3.536-.134-3.346-5.702 1.035-5.84 2.985-.092 5.41 1.447 5.41 4.152 0 4.385-6.203 6.948-11.66 4.15 3.917 1.68 9.616-.343 9.616-4.152m-25.75 5.23c0 2.74-2.185 4.244-4.843 4.244-2.66 0-5.566-2.078-4.237-5.733-.793 3.33 2.19 4.376 3.85 4.376 2.155 0 3.46-1.467 3.46-3.046 0-1.578-.866-2.056-1.807-2.056-1.38 0-2.3 1.42-1.432 1.973-1.66 0-.74-2.796 1.496-2.99 1.91-.167 3.513.99 3.513 3.232m18.53-29.023c3.994-1.515 6.98.076 18.307-3.44 10.26-3.187 23.505-16.39 13.35-25.6-8.314-7.543-25.135-5.38-34.54.876-3.463 2.3-6.04 5.348-8.13 8.375.572.095 1.078.33 1.44.748 1.1 1.272.495 3.6-1.35 5.194-1.494 1.292-3.334 1.692-4.57 1.13-3.54 5.07-8.05 7.204-11.38 7.967 3.196-1.356 6.85-4.587 8.42-7.728-9.066 3.29-12.04-4.94-5.337-6.192-3.23.852-3.03 5.052 1.224 5.052 4.89 0 6.013-8.332-1.224-8.332-4.185 0-6.73 2.036-8.482 4.637 7.945 5.156 3.967 12.185-1.462 12.185-9.725 0-4.448-11.46.15-7.087-3.843-2.413-6.256 4.976-.074 4.976 4.9 0 5.282-6.28.34-8.446-3.96-1.733-9.236-1.356-12.328 2.413-2.91 3.55-2.344 7.75 1.56 10.305 4.776 3.124 2.543 8.015-.038 9.585-2.967 1.804-6.732.872-6.732-1.502 0-.83.603-2.186 1.733-2.186-1.244.3-1.428 2.854 1.266 2.854 1.77 0 3.942-.862 3.942-3.368 0-1.662-.944-4.23-5.914-4.23-4.88 0-10.036 3.99-10.036 10.057 0 6.07 5.804 8.462 12.666 7.747 5.428-.565 7.796-4.334 12.892-1.583 5.655 3.054 4.547 9.983 2.77 13.627-2.204 4.523-1.21 12.422 7.974 11.648 7.5-.63 9.03-5.816 8.82-9.216-.227-3.732-2.337-5.523-4.9-6.352 3.77-1.056 8.248.76 10.33 5.58 1.432 3.317 4.824 6.03 10.253 6.03 8.292 0 12.648-5.012 12.06-11.158-.226-2.375-1.732-5.88-5.275-6.408 1.96-2.488 5.05-3.47 11.46-2.11 5.57 1.178 10.404-3.092 10.404-7.164 0-6.86-6.26-8.143-8.972-8.143-3.168 0-6.14 1.657-6.14 4.674 0 2.563 2.028 3.622 4.33 3.622 2.64 0 4.277-.985 4.277-2.607 0-2.64-3.826-3.13-5.187-1.422 1.276-2.782 6.64-1.942 6.64 1.767 0 2.03-1.51 3.92-5.957 3.92-5.292 0-7.916-4.75-6.183-8.295-1.506.377-3.014 1.51-4.55 2.138-8.825 3.616-11.147-3.29-7.846-4.54" fill="#C7D8C6"/></svg>